# xmcd
# Copyright (C) 1995-1998 Ti Kan
#
# Track frame offsets:
#       150
#       9645
#       22881
#       41089
#       60203
#       70329
#       85564
#       95863
#       113699
#       127795
#       141677
#       152433
#
# Disc length: 2209 seconds
#
# Revision: 0
# Processed by: cddbd v1.5.2PL0 Copyright (c) Steve Scherf et al.
# Submitted via: CD-Import v1.0
#
DISCID=92089f0c
DTITLE=Never Evers - Cosmical
DYEAR=2004
DGENRE=
TTITLE0=Seen
TTITLE1=Shake
TTITLE2=While I Hate You
TTITLE3=In The End (Feat. Big Zis)
TTITLE4=Sugarman
TTITLE5=Outbreaker
TTITLE6=Baby Baby
TTITLE7=Come On
TTITLE8=Cosmical
TTITLE9=What A Girl Can Do
TTITLE10=Eight
TTITLE11=Help Me!
EXTD=
EXTT0=
EXTT1=
EXTT2=
EXTT3=
EXTT4=
EXTT5=
EXTT6=
EXTT7=
EXTT8=
EXTT9=
EXTT10=
EXTT11=
PLAYORDER=
